<svg xmlns="http://www.w3.org/2000/svg" viewBox="0 0 64 64">
  <path fill="#075ee8" d="M32 5C22.2 16.1 13.4 27.1 13.4 38.1c0 11.4 8.1 19.9 18.6 19.9s18.6-8.5 18.6-19.9C50.6 27.1 41.8 16.1 32 5Z"/>
  <path fill="none" stroke="#fff" stroke-linecap="round" stroke-linejoin="round" stroke-width="6" d="M21.3 42.1c5.3 4.5 13.1 4.3 18.2-.5l5.1-4.8"/>
  <path fill="#061a3d" stroke="#fff" stroke-linejoin="round" stroke-width="2" d="M43.5 28.9a7.4 7.4 0 0 0-8.1 9.8L24.1 50a4.3 4.3 0 0 0 6.1 6.1l11.2-11.3a7.4 7.4 0 0 0 9.8-8.1l-5.1 5.1-7.7-7.7 5.1-5.2Z"/>
  <circle cx="25.3" cy="25.7" r="4.4" fill="#fff"/>
</svg>
